<svg fill="none" viewBox="0 0 205 50" xmlns="http://www.w3.org/2000/svg" preserveAspectRatio="xMinYMin meet">
 <linearGradient id="a" x1="143.66" x2="0" y1="27.465" y2="27.465" gradientUnits="userSpaceOnUse">
  <stop stop-color="#b00839" offset="0"/>
  <stop stop-color="#f99d1d" offset="1"/>
 </linearGradient>
 <g fill="url(#a)">
  <path d="m33.236 31.762c0 3.2344-0.4276 6.0012-1.2828 8.3004-0.8163 2.2992-1.963 4.1892-3.4402 5.67-1.4771 1.4418-3.2264 2.5135-5.2477 3.2149-2.0214 0.7015-4.2371 1.0522-6.6471 1.0522-2.4101 0-4.6258-0.3507-6.6472-1.0522-2.0214-0.7014-3.7706-1.7731-5.2477-3.2149-1.4771-1.4808-2.6433-3.3708-3.4985-5.67-0.81631-2.2992-1.2245-5.066-1.2245-8.3004v-7.8912c0-3.1955 0.40816-5.9428 1.2245-8.242 0.85519-2.3381 2.0214-4.2281 3.4985-5.67 1.4771-1.4808 3.2264-2.572 5.2477-3.2734 2.0214-0.70144 4.2371-1.0522 6.6472-1.0522 2.41 0 4.6257 0.35072 6.6471 1.0522 2.0213 0.70144 3.7706 1.7926 5.2477 3.2734 1.4772 1.4418 2.6239 3.3318 3.4402 5.67 0.8552 2.2992 1.2828 5.0465 1.2828 8.242zm-8.1631-7.8912c0-3.8969-0.6997-6.7222-2.0991-8.4758-1.3606-1.7926-3.4791-2.6888-6.3556-2.6888-2.8766 0-5.0146 0.8962-6.414 2.6888-1.3605 1.7536-2.0407 4.5789-2.0407 8.4758v7.8912c0 3.8969 0.68026 6.7416 2.0407 8.5342 1.3994 1.7536 3.5374 2.6304 6.414 2.6304 2.8765 0 4.995-0.8768 6.3556-2.6304 1.3994-1.7926 2.0991-4.6373 2.0991-8.5342z"/>
  <path d="m70.8846 19.6626c0 2.572-.4665 4.7348-1.3994 6.4884-.894 1.7536-2.1185 3.1759-3.6734 4.2671-1.516 1.0521-3.2847 1.812-5.3061 2.2797-2.0213.4286-4.1593.6429-6.4139.6429-.7774 0-1.6715-.0194-2.6821-.0584-1.0107-.0779-1.8465-.1364-2.5073-.1754v15.2564c0 .3117-.1166.5845-.3498.8183-.1944.2338-.4471.3508-.7581.3508h-5.8308c-.311 0-.5831-.117-.8163-.3508s-.3498-.5066-.3498-.8183v-40.21601c0-.58454.1554-.99371.4664-1.22752.3499-.27279.8163-.44815 1.3994-.52608 1.516-.23382 3.2653-.40918 5.2478-.52609 1.9824-.15587 4.0427-.23381 6.1806-.23381 2.2546 0 4.3926.21433 6.4139.64299 2.0214.42866 3.7901 1.16907 5.3061 2.22123 1.5549 1.05216 2.7794 2.45509 3.6734 4.20869.9329 1.7146 1.3994 3.8579 1.3994 6.4298zm-8.0465-.5261c0-2.455-.7386-4.1891-2.2157-5.2023-1.4383-1.0522-3.6151-1.5783-6.5306-1.5783-.3109 0-.7191.0195-1.2244.0585-.4665 0-.9524.0195-1.4577.0584-.5054 0-.9913.0195-1.4578.0585-.4275 0-.7774.0195-1.0495.0585v13.9119c.2332 0 .5831.0195 1.0495.0584.5054 0 1.0107.0195 1.5161.0585.5442 0 1.0495.0195 1.516.0584h1.1078c3.1487 0 5.3838-.5845 6.7055-1.7536 1.3605-1.169 2.0408-2.9226 2.0408-5.2608z"/>
  <path d="m103.011 47.9541c0 .4287-.097.7209-.291.8768-.156.1559-.447.2728-.875.3507-.467.078-.991.1754-1.574.2923-.5446.0779-1.2443.1559-2.0995.2338-.8163.078-1.827.1364-3.032.1754-1.1662.0779-2.6239.1169-4.3731.1169-1.9048 0-3.6735-.1559-5.3061-.4676-1.6326-.3118-3.0515-.8963-4.2565-1.7536-1.205-.8963-2.1574-2.1239-2.8571-3.6826-.6997-1.5588-1.0495-3.5852-1.0495-6.0792v-20.4002c0-2.4941.3498-4.5204 1.0495-6.0792.6997-1.55877 1.6521-2.76681 2.8571-3.62412 1.205-.89629 2.6239-1.50031 4.2565-1.81206s3.4013-.46763 5.3061-.46763c1.7492 0 3.2069.03897 4.3731.11691 1.205.03897 2.2157.09742 3.032.17536.8552.07794 1.5549.17536 2.0995.29226.583.07794 1.107.15588 1.574.23382.428.07794.719.19484.875.35072.194.15588.291.44814.291.8768v3.74104c0 .3117-.117.5845-.35.8183s-.505.3508-.816.3508h-11.895c-1.7103 0-2.9154.3507-3.6151 1.0521-.6608.7015-.9912 2.0264-.9912 3.9749v6.3129h15.8013c.311 0 .583.1169.817.3508.233.2338.349.5065.349.8183v4.2087c0 .3117-.116.5845-.349.8183-.234.2338-.506.3507-.817.3507h-15.8013v7.5405c0 1.9485.3304 3.2734.9912 3.9749.6997.7014 1.9048 1.0521 3.6151 1.0521h11.895c.311 0 .583.1169.816.3507.233.2339.35.5066.35.8184z"/>
  <path d="m143.662 47.1942c0 .6625-.233 1.2275-.7 1.6952-.427.4286-.972.643-1.632.643h-5.889c-.7 0-1.361-.078-1.983-.2339-.583-.1948-1.108-.8183-1.574-1.8705l-12.945-28.4668c-.155-.3118-.33-.4676-.525-.4676-.194 0-.291.1558-.291.4676v29.4021c0 .3117-.117.5845-.35.8183-.194.2338-.447.3508-.758.3508h-4.956c-.311 0-.583-.117-.816-.3508-.234-.2338-.35-.5066-.35-.8183v-39.92374c0-.66248.214-1.20804.641-1.6367.467-.46763 1.03-.70144 1.691-.70144h6.297c.622 0 1.108.1169 1.458.35072.389.23381.758.74041 1.108 1.51979l13.586 30.04507c.116.3118.272.4676.466.4676.195 0 .292-.1753.292-.526v-30.74657c0-.74041.369-1.11061 1.108-1.11061h5.014c.739 0 1.108.3702 1.108 1.11061z"/>
 </g>
 <path d="m155 6h44v44h-44z" fill="#b1063a"/>
 <path d="m167.5 0h37.5v37.5h-37.5z" fill="#f8a51a"/>
 <path d="m167.5 6h31.5v31.5h-31.5z" fill="#e2681d"/>
 <g fill="#fff">
  <path d="m180.681 21.7071c0 .0781-.029.1464-.087.205s-.126.0879-.204.0879h-1.441c-.078 0-.146-.0293-.204-.0879s-.087-.1269-.087-.205v-4.4821h-4.134v4.4821c0 .0781-.03.1464-.088.205s-.126.0879-.204.0879h-1.441c-.077 0-.145-.0293-.204-.0879-.058-.0586-.087-.1269-.087-.205v-10.3116c0-.0781.029-.1416.087-.1904.059-.0586.127-.0879.204-.0879h1.441c.078 0 .146.0293.204.0879.058.0488.088.1123.088.1904v4.0426h4.134v-4.0426c0-.0781.029-.1416.087-.1904.058-.0586.126-.0879.204-.0879h1.441c.078 0 .146.0293.204.0879.058.0488.087.1123.087.1904z"/>
  <path d="m190.375 14.5153c0 .6445-.116 1.1864-.349 1.6258-.223.4395-.529.7959-.917 1.0693-.379.2636-.82.454-1.325.5712-.504.1074-1.038.1611-1.601.1611-.194 0-.417-.0048-.67-.0146-.252-.0195-.461-.0342-.626-.0439v3.8229c0 .0781-.029.1464-.087.205-.049.0586-.112.0879-.189.0879h-1.456c-.078 0-.146-.0293-.204-.0879s-.087-.1269-.087-.205v-10.0773c0-.1464.039-.249.116-.3076.088-.0683.204-.1123.35-.1318.378-.0586.815-.1025 1.31-.1318.495-.0391 1.009-.0586 1.543-.0586.563 0 1.097.0537 1.601.1611.505.1074.946.293 1.325.5566.388.2637.694.6152.917 1.0546.233.4297.349.9667.349 1.6112zm-2.008-.1318c0-.6152-.185-1.0497-.554-1.3036-.359-.2637-.902-.3955-1.63-.3955-.078 0-.18.0049-.306.0147-.116 0-.238.0049-.364.0146-.126 0-.247.0049-.364.0147-.106 0-.194.0048-.262.0146v3.486c.059 0 .146.0049.262.0147.126 0 .253.0049.379.0146.136 0 .262.0049.378.0147h.277c.786 0 1.344-.1465 1.674-.4394.34-.293.51-.7324.51-1.3183z"/>
  <path d="m194 21.7071c0 .0781-.029.1464-.087.205-.059.0586-.127.0879-.204.0879h-1.441c-.078 0-.146-.0293-.204-.0879s-.088-.1269-.088-.205v-10.3116c0-.0781.03-.1416.088-.1904.058-.0586.126-.0879.204-.0879h1.441c.077 0 .145.0293.204.0879.058.0488.087.1123.087.1904z"/>
 </g>
</svg>
