<?xml version="1.0" encoding="UTF-8" standalone="no"?>
<svg
   xmlns:dc="http://purl.org/dc/elements/1.1/"
   xmlns:cc="http://creativecommons.org/ns#"
   xmlns:rdf="http://www.w3.org/1999/02/22-rdf-syntax-ns#"
   xmlns:svg="http://www.w3.org/2000/svg"
   xmlns="http://www.w3.org/2000/svg"
   xmlns:sodipodi="http://sodipodi.sourceforge.net/DTD/sodipodi-0.dtd"
   xmlns:inkscape="http://www.inkscape.org/namespaces/inkscape"
   version="1.1"
   viewBox="0 0 177.80687 181.0413"
   id="svg30"
   sodipodi:docname="logo.svg"
   width="177.80687"
   height="181.04131"
   inkscape:version="1.0.2 (e86c870879, 2021-01-15)">
  <metadata
     id="metadata36">
    <rdf:RDF>
      <cc:Work
         rdf:about="">
        <dc:format>image/svg+xml</dc:format>
        <dc:type
           rdf:resource="http://purl.org/dc/dcmitype/StillImage" />
        <dc:title></dc:title>
      </cc:Work>
    </rdf:RDF>
  </metadata>
  <defs
     id="defs34" />
  <sodipodi:namedview
     pagecolor="#ffffff"
     bordercolor="#666666"
     borderopacity="1"
     objecttolerance="10"
     gridtolerance="10"
     guidetolerance="10"
     inkscape:pageopacity="0"
     inkscape:pageshadow="2"
     inkscape:window-width="2205"
     inkscape:window-height="1077"
     id="namedview32"
     showgrid="false"
     fit-margin-top="0"
     fit-margin-left="0"
     fit-margin-right="0"
     fit-margin-bottom="0"
     inkscape:zoom="1.436372"
     inkscape:cx="456.01236"
     inkscape:cy="90.522755"
     inkscape:window-x="23"
     inkscape:window-y="15"
     inkscape:window-maximized="0"
     inkscape:current-layer="g26" />
  <g
     transform="translate(-337.81765,-131.58725)"
     id="g28">
    <g
       transform="matrix(0,1.0772,-1.0772,0,719.2,92.077)"
       stroke-width="0"
       id="g26">
      <g
         transform="translate(-18.203)"
         id="g16">
        <g
           transform="matrix(0,-0.92833,0.92833,0,-118,387.5)"
           fill="#ffffff"
           stroke-width="0"
           id="g8">
          <path
             transform="matrix(0,0.76472,-0.76472,0,269.41,276.33)"
             d="M 83.21,305.18 H 11.791 l -35.71,-61.851 35.71,-61.851 71.419,1e-5 35.71,61.851 z"
             id="path2" />
          <path
             transform="matrix(0,0.76472,-0.76472,0,311.23,204.52)"
             d="M 83.21,305.18 H 11.791 l -35.71,-61.851 35.71,-61.851 71.419,1e-5 35.71,61.851 z"
             id="path4" />
          <path
             transform="matrix(0,0.76472,-0.76472,0,352.62,276.33)"
             d="M 83.21,305.18 H 11.791 l -35.71,-61.851 35.71,-61.851 71.419,1e-5 35.71,61.851 z"
             id="path6" />
        </g>
        <path
           transform="matrix(0.59161,0,0,0.59161,144.15,166.2)"
           d="M 83.21,305.18 H 11.791 l -35.71,-61.851 35.71,-61.851 71.419,1e-5 35.71,61.851 z"
           fill="#333333"
           id="path10" />
        <path
           transform="matrix(0.59161,0,0,0.59161,77.484,127.37)"
           d="M 83.21,305.18 H 11.791 l -35.71,-61.851 35.71,-61.851 71.419,1e-5 35.71,61.851 z"
           fill="#de6212"
           id="path12" />
        <path
           transform="matrix(0.59161,0,0,0.59161,144.15,88.958)"
           d="M 83.21,305.18 H 11.791 l -35.71,-61.851 35.71,-61.851 71.419,1e-5 35.71,61.851 z"
           fill="#333333"
           id="path14" />
      </g>
    </g>
  </g>
</svg>
