<svg width="1622" height="464" viewBox="0 0 1622 464" fill="none" xmlns="http://www.w3.org/2000/svg">
<g clip-path="url(#clip0_118_13)">
<path d="M370.76 252.252L227.43 335.004L84.1 252.252V86.752L227.43 4L370.76 86.752V252.252Z" fill="white" stroke="#333333" stroke-width="8" stroke-linecap="round" stroke-linejoin="round"/>
<path d="M339.32 362.372L171.66 459.17L4 362.372L4 168.772L171.66 71.974L339.32 168.772V362.372Z" fill="white" stroke="#333333" stroke-width="8" stroke-linecap="round" stroke-linejoin="round"/>
<path d="M171.66 71.972L84.097 122.525V252.245L227.427 334.997L339.317 270.397V168.767L171.66 71.972Z" fill="white" stroke="#333333" stroke-width="8" stroke-linecap="round" stroke-linejoin="round"/>
<path d="M660.03 393.876H615.649L533.413 258.996L449.872 393.876H408.537L511.657 232.016L415.063 83.2061H458.574L534.718 205.036L611.297 83.2061H652.632L556.473 231.146L660.03 393.876Z" fill="white"/>
<path d="M718.31 73.196C724.111 73.196 729.188 75.2265 733.539 79.2875C738.18 83.0585 740.501 89.1501 740.501 97.5625C740.501 105.685 738.18 111.776 733.539 115.838C729.188 119.899 724.112 121.929 718.31 121.929C711.928 121.929 706.562 119.899 702.211 115.838C697.86 111.777 695.684 105.685 695.684 97.5625C695.684 89.1505 697.86 83.0589 702.211 79.2875C706.562 75.2265 711.928 73.196 718.31 73.196ZM737.02 160.653V393.873H698.73V160.653H737.02Z" fill="white"/>
<path d="M848.76 63.196V235.936C848.76 240.577 848.47 246.669 847.89 254.211C847.6 261.753 847.31 268.28 847.02 273.791H848.76C850.5 271.47 853.111 268.134 856.592 263.783C860.073 259.432 863.554 255.081 867.035 250.73C870.806 246.089 873.997 242.318 876.607 239.417L951.011 160.662H995.827L901.408 260.302L1002.36 393.882H956.236L875.306 285.102L848.764 308.163V393.88H810.909V63.2L848.76 63.196Z" fill="white"/>
<path d="M1245.66 276.826C1245.66 315.406 1235.8 345.284 1216.07 366.459C1196.64 387.634 1170.24 398.222 1136.88 398.222C1116.29 398.222 1097.87 393.581 1081.62 384.298C1065.67 374.725 1053.05 360.947 1043.77 342.963C1034.49 324.688 1029.84 302.643 1029.84 276.826C1029.84 238.246 1039.56 208.513 1059 187.628C1078.43 166.743 1104.83 156.3 1138.19 156.3C1159.36 156.3 1177.93 161.086 1193.88 170.659C1210.12 179.942 1222.74 193.575 1231.73 211.559C1241.02 229.254 1245.66 251.009 1245.66 276.825L1245.66 276.826ZM1069.44 276.826C1069.44 304.383 1074.81 326.283 1085.54 342.528C1096.56 358.482 1113.97 366.459 1137.75 366.459C1161.25 366.459 1178.51 358.482 1189.53 342.528C1200.55 326.284 1206.06 304.383 1206.06 276.826C1206.06 249.269 1200.55 227.658 1189.53 211.995C1178.51 196.332 1161.1 188.5 1137.32 188.499C1113.53 188.498 1096.27 196.33 1085.54 211.995C1074.81 227.66 1069.44 249.27 1069.44 276.826Z" fill="white"/>
<path d="M1344.66 393.876H1306.37V63.196H1344.66V393.876Z" fill="white"/>
<path d="M1621.26 276.826C1621.26 315.406 1611.4 345.284 1591.67 366.459C1572.24 387.634 1545.84 398.222 1512.48 398.222C1491.89 398.222 1473.47 393.581 1457.22 384.298C1441.27 374.725 1428.65 360.947 1419.37 342.963C1410.09 324.688 1405.44 302.643 1405.44 276.826C1405.44 238.246 1415.16 208.513 1434.6 187.628C1454.03 166.743 1480.43 156.3 1513.79 156.3C1534.96 156.3 1553.53 161.086 1569.48 170.659C1585.72 179.942 1598.34 193.575 1607.34 211.559C1616.62 229.254 1621.26 251.009 1621.26 276.825L1621.26 276.826ZM1445.04 276.826C1445.04 304.383 1450.41 326.283 1461.14 342.528C1472.16 358.482 1489.57 366.459 1513.35 366.459C1536.85 366.459 1554.11 358.482 1565.13 342.528C1576.15 326.284 1581.66 304.383 1581.66 276.826C1581.66 249.269 1576.15 227.658 1565.13 211.995C1554.11 196.332 1536.7 188.5 1512.92 188.499C1489.13 188.498 1471.87 196.33 1461.14 211.995C1450.41 227.66 1445.04 249.27 1445.04 276.826Z" fill="white"/>
</g>
<defs>
<clipPath id="clip0_118_13">
<rect width="1621.3" height="463.17" fill="white"/>
</clipPath>
</defs>
</svg>
