<svg width="123" height="30" viewBox="0 0 123 30" fill="none" xmlns="http://www.w3.org/2000/svg">
<path fill-rule="evenodd" clip-rule="evenodd" d="M99.3 3.6001H93V30.0001H119.4V23.7001H99.3V3.6001Z" fill="#333333"/>
<rect x="100.5" width="22.5" height="22.5" fill="#333333"/>
<path d="M108.409 13.0243C108.409 13.0712 108.391 13.1122 108.356 13.1474C108.321 13.1825 108.281 13.2001 108.234 13.2001H107.369C107.323 13.2001 107.282 13.1825 107.247 13.1474C107.212 13.1122 107.195 13.0712 107.195 13.0243V10.3351H104.714V13.0243C104.714 13.0712 104.697 13.1122 104.662 13.1474C104.627 13.1825 104.586 13.2001 104.539 13.2001H103.675C103.628 13.2001 103.587 13.1825 103.552 13.1474C103.517 13.1122 103.5 13.0712 103.5 13.0243V6.83738C103.5 6.79051 103.517 6.75243 103.552 6.72313C103.587 6.68798 103.628 6.6704 103.675 6.6704H104.539C104.586 6.6704 104.627 6.68798 104.662 6.72313C104.697 6.75243 104.714 6.79051 104.714 6.83738V9.26295H107.195V6.83738C107.195 6.79051 107.212 6.75243 107.247 6.72313C107.282 6.68798 107.323 6.6704 107.369 6.6704H108.234C108.281 6.6704 108.321 6.68798 108.356 6.72313C108.391 6.75243 108.409 6.79051 108.409 6.83738V13.0243Z" fill="white"/>
<path d="M114.225 8.70929C114.225 9.09597 114.155 9.42114 114.016 9.68478C113.882 9.94843 113.698 10.1623 113.465 10.3263C113.238 10.4845 112.973 10.5988 112.671 10.6691C112.368 10.7335 112.047 10.7657 111.71 10.7657C111.593 10.7657 111.459 10.7628 111.308 10.757C111.157 10.7452 111.031 10.7364 110.932 10.7306V13.0243C110.932 13.0712 110.915 13.1122 110.88 13.1474C110.851 13.1825 110.813 13.2001 110.766 13.2001H109.893C109.846 13.2001 109.806 13.1825 109.771 13.1474C109.736 13.1122 109.718 13.0712 109.718 13.0243V6.97799C109.718 6.89011 109.742 6.82859 109.788 6.79344C109.841 6.75243 109.91 6.72606 109.998 6.71435C110.225 6.67919 110.487 6.65283 110.784 6.63525C111.081 6.61182 111.389 6.6001 111.71 6.6001C112.047 6.6001 112.368 6.63232 112.671 6.69677C112.973 6.76122 113.238 6.87253 113.465 7.03072C113.698 7.18891 113.882 7.39983 114.016 7.66348C114.155 7.92127 114.225 8.24351 114.225 8.63019V8.70929ZM113.02 8.63019C113.02 8.26108 112.909 8.00036 112.688 7.84803C112.473 7.68984 112.146 7.61075 111.71 7.61075C111.663 7.61075 111.602 7.61368 111.526 7.61954C111.456 7.61954 111.384 7.62247 111.308 7.62833C111.232 7.62833 111.159 7.63126 111.09 7.63712C111.026 7.63712 110.973 7.64004 110.932 7.6459V9.73751C110.967 9.73751 111.02 9.74044 111.09 9.7463C111.165 9.7463 111.241 9.74923 111.317 9.75509C111.398 9.75509 111.474 9.75802 111.544 9.76388C111.619 9.76388 111.675 9.76388 111.71 9.76388C112.181 9.76388 112.516 9.676 112.714 9.50023C112.918 9.32447 113.02 9.06082 113.02 8.70929V8.63019Z" fill="white"/>
<path d="M116.4 13.0243C116.4 13.0712 116.383 13.1122 116.348 13.1474C116.313 13.1825 116.272 13.2001 116.225 13.2001H115.361C115.314 13.2001 115.273 13.1825 115.238 13.1474C115.203 13.1122 115.186 13.0712 115.186 13.0243V6.83738C115.186 6.79051 115.203 6.75243 115.238 6.72313C115.273 6.68798 115.314 6.6704 115.361 6.6704H116.225C116.272 6.6704 116.313 6.68798 116.348 6.72313C116.383 6.75243 116.4 6.79051 116.4 6.83738V13.0243Z" fill="white"/>
<path d="M19.9414 19.0576C19.9414 20.9983 19.6849 22.6583 19.1718 24.0378C18.682 25.4173 17.9939 26.5513 17.1076 27.4398C16.2214 28.3049 15.1718 28.9479 13.959 29.3688C12.7462 29.7897 11.4168 30.0001 9.97071 30.0001C8.52467 30.0001 7.19524 29.7897 5.98243 29.3688C4.76962 28.9479 3.72007 28.3049 2.83378 27.4398C1.9475 26.5513 1.2478 25.4173 0.734684 24.0378C0.244895 22.6583 0 20.9983 0 19.0576V14.3229C0 12.4056 0.244895 10.7572 0.734684 9.3777C1.2478 7.97481 1.9475 6.84082 2.83378 5.97571C3.72007 5.08721 4.76962 4.43253 5.98243 4.01167C7.19524 3.5908 8.52467 3.38037 9.97071 3.38037C11.4168 3.38037 12.7462 3.5908 13.959 4.01167C15.1718 4.43253 16.2214 5.08721 17.1076 5.97571C17.9939 6.84082 18.682 7.97481 19.1718 9.3777C19.6849 10.7572 19.9414 12.4056 19.9414 14.3229V19.0576ZM15.0435 14.3229C15.0435 11.9847 14.6237 10.2896 13.7841 9.23741C12.9678 8.16187 11.6966 7.62409 9.97071 7.62409C8.24479 7.62409 6.962 8.16187 6.12237 9.23741C5.30605 10.2896 4.89789 11.9847 4.89789 14.3229V19.0576C4.89789 21.3957 5.30605 23.1026 6.12237 24.1781C6.962 25.2303 8.24479 25.7564 9.97071 25.7564C11.6966 25.7564 12.9678 25.2303 13.7841 24.1781C14.6237 23.1026 15.0435 21.3957 15.0435 19.0576V14.3229Z" fill="#333333"/>
<path d="M42.5308 11.7977C42.5308 13.3408 42.2509 14.6385 41.6911 15.6907C41.1547 16.7428 40.42 17.5963 39.4871 18.2509C38.5775 18.8822 37.5163 19.3382 36.3034 19.6187C35.0906 19.8759 33.8079 20.0045 32.4551 20.0045C31.9886 20.0045 31.4522 19.9929 30.8458 19.9695C30.2394 19.9227 29.7379 19.8876 29.3414 19.8643V29.0181C29.3414 29.2051 29.2715 29.3688 29.1315 29.5091C29.0149 29.6494 28.8633 29.7195 28.6767 29.7195H25.1782C24.9916 29.7195 24.8284 29.6494 24.6884 29.5091C24.5485 29.3688 24.4785 29.2051 24.4785 29.0181V4.88847C24.4785 4.53775 24.5718 4.29225 24.7584 4.15196C24.9683 3.98829 25.2482 3.88307 25.5981 3.83631C26.5077 3.69602 27.5572 3.5908 28.7467 3.52066C29.9362 3.42713 31.1723 3.38037 32.4551 3.38037C33.8079 3.38037 35.0906 3.50897 36.3034 3.76617C37.5163 4.02336 38.5775 4.46761 39.4871 5.0989C40.42 5.7302 41.1547 6.57193 41.6911 7.62409C42.2509 8.65288 42.5308 9.93885 42.5308 11.482V11.7977ZM37.7028 11.482C37.7028 10.009 37.2597 8.96852 36.3734 8.36061C35.5105 7.72931 34.2043 7.41366 32.4551 7.41366C32.2685 7.41366 32.0236 7.42535 31.7204 7.44873C31.4405 7.44873 31.149 7.46042 30.8458 7.48381C30.5426 7.48381 30.251 7.4955 29.9712 7.51888C29.7146 7.51888 29.5047 7.53057 29.3414 7.55395V15.9011C29.4814 15.9011 29.6913 15.9128 29.9712 15.9362C30.2744 15.9362 30.5776 15.9479 30.8808 15.9713C31.2073 15.9713 31.5105 15.9829 31.7904 16.0063C32.0936 16.0063 32.3152 16.0063 32.4551 16.0063C34.3443 16.0063 35.6854 15.6556 36.4784 14.9542C37.2947 14.2527 37.7028 13.2006 37.7028 11.7977V11.482Z" fill="#333333"/>
<path d="M61.8067 28.7726C61.8067 29.0298 61.7483 29.2051 61.6317 29.2986C61.5384 29.3922 61.3635 29.4623 61.107 29.5091C60.8271 29.5558 60.5122 29.6143 60.1624 29.6844C59.8358 29.7312 59.416 29.778 58.9029 29.8247C58.4131 29.8715 57.8067 29.9066 57.0837 29.9299C56.384 29.9767 55.5094 30.0001 54.4598 30.0001C53.317 30.0001 52.2558 29.9066 51.2762 29.7195C50.2966 29.5325 49.4453 29.1817 48.7223 28.6673C47.9993 28.1296 47.4278 27.3931 47.008 26.4578C46.5882 25.5226 46.3783 24.3067 46.3783 22.8103V10.5702C46.3783 9.07374 46.5882 7.85791 47.008 6.92265C47.4278 5.9874 47.9993 5.26257 48.7223 4.74818C49.4453 4.21041 50.2966 3.848 51.2762 3.66095C52.2558 3.4739 53.317 3.38037 54.4598 3.38037C55.5094 3.38037 56.384 3.40375 57.0837 3.45052C57.8067 3.4739 58.4131 3.50897 58.9029 3.55573C59.416 3.60249 59.8358 3.66095 60.1624 3.73109C60.5122 3.77786 60.8271 3.82462 61.107 3.87138C61.3635 3.91814 61.5384 3.98829 61.6317 4.08181C61.7483 4.17534 61.8067 4.3507 61.8067 4.6079V6.85251C61.8067 7.03956 61.7367 7.20323 61.5968 7.34352C61.4568 7.48381 61.2935 7.55395 61.107 7.55395H53.97C52.9438 7.55395 52.2208 7.76438 51.801 8.18525C51.4045 8.60611 51.2062 9.40108 51.2062 10.5702V14.3579H60.6871C60.8737 14.3579 61.037 14.4281 61.1769 14.5684C61.3169 14.7087 61.3868 14.8723 61.3868 15.0594V17.5846C61.3868 17.7716 61.3169 17.9353 61.1769 18.0756C61.037 18.2159 60.8737 18.286 60.6871 18.286H51.2062V22.8103C51.2062 23.9794 51.4045 24.7743 51.801 25.1952C52.2208 25.6161 52.9438 25.8265 53.97 25.8265H61.107C61.2935 25.8265 61.4568 25.8967 61.5968 26.0369C61.7367 26.1772 61.8067 26.3409 61.8067 26.528V28.7726Z" fill="#333333"/>
<path d="M86.1972 28.3166C86.1972 28.7141 86.0572 29.0531 85.7774 29.3337C85.5208 29.5909 85.1943 29.7195 84.7978 29.7195H81.2643C80.8445 29.7195 80.448 29.6728 80.0748 29.5792C79.725 29.4623 79.4101 29.0882 79.1302 28.4569L71.3636 11.3768C71.2703 11.1898 71.1653 11.0962 71.0487 11.0962C70.9321 11.0962 70.8738 11.1898 70.8738 11.3768V29.0181C70.8738 29.2051 70.8038 29.3688 70.6639 29.5091C70.5472 29.6494 70.3956 29.7195 70.2091 29.7195H67.2353C67.0488 29.7195 66.8855 29.6494 66.7456 29.5091C66.6056 29.3688 66.5356 29.2051 66.5356 29.0181V5.06383C66.5356 4.66635 66.6639 4.33901 66.9205 4.08181C67.2004 3.80124 67.5385 3.66095 67.935 3.66095H71.7134C72.0866 3.66095 72.3781 3.73109 72.588 3.87138C72.8213 4.01167 73.0428 4.31563 73.2528 4.78326L81.4042 22.8103C81.4742 22.9974 81.5675 23.0909 81.6841 23.0909C81.8007 23.0909 81.859 22.9857 81.859 22.7752V4.32732C81.859 3.88307 82.0806 3.66095 82.5238 3.66095H85.5325C85.9756 3.66095 86.1972 3.88307 86.1972 4.32732V28.3166Z" fill="#333333"/>
</svg>
