<svg viewBox="0 0 1621.3 463.17" xmlns="http://www.w3.org/2000/svg" preserveAspectRatio="xMinYMin meet">
 <g transform="translate(-3.34 -47.858)" stroke-linecap="round" stroke-linejoin="round" stroke-width="8">
  <path d="m374.1 300.11-143.33 82.752-143.33-82.752 1e-6 -165.5 143.33-82.752 143.33 82.752z" fill="#f89c0e" stroke="#faffff"/>
  <path d="m342.66 410.23-167.66 96.798-167.66-96.798 9e-7 -193.6 167.66-96.798 167.66 96.798z" fill="#b00c36" stroke="#fff"/>
  <path d="m175 119.83-87.563 50.553v129.72l143.33 82.752 111.89-64.6v-101.63z" fill="#e25617" stroke="#faffff"/>
 </g>
 <g transform="translate(-3.34 -46.604)" fill="#333" stroke-width="10.878">
  <path d="m663.37 440.48h-44.381l-82.236-134.88-83.541 134.88h-41.335l103.12-161.86-96.594-148.81h43.511l76.144 121.83 76.579-121.83h41.335l-96.159 147.94z"/>
  <path d="m721.65 119.8q8.7022 0 15.229 6.0915 6.9618 5.6564 6.9618 18.275 0 12.183-6.9618 18.275-6.5266 6.0915-15.229 6.0915-9.5724 0-16.099-6.0915t-6.5266-18.275q0-12.618 6.5266-18.275 6.5266-6.0915 16.099-6.0915zm18.71 87.457v233.22h-38.29v-233.22z"/>
  <path d="m852.1 109.8v172.74q0 6.9618-0.87022 18.275-0.43511 11.313-0.87022 19.58h1.7404q2.6107-3.4809 7.832-10.008t10.443-13.053q5.6564-6.9618 9.5724-11.313l74.404-78.755h44.816l-94.419 99.64 100.95 133.58h-46.122l-80.93-108.78-26.542 23.061v85.717h-37.855v-330.68z"/>
  <path d="m1249 323.43q0 57.87-29.588 89.633-29.152 31.763-79.19 31.763-30.893 0-55.259-13.924-23.931-14.359-37.855-41.335-13.924-27.412-13.924-66.137 0-57.87 29.152-89.198 29.152-31.328 79.19-31.328 31.763 0 55.694 14.359 24.366 13.924 37.854 40.9 13.924 26.542 13.924 65.266zm-176.22 0q0 41.335 16.099 65.702 16.534 23.931 52.213 23.931 35.244 0 51.778-23.931 16.534-24.366 16.534-65.702t-16.534-64.831-52.213-23.496-51.778 23.496-16.099 64.831z"/>
  <path d="m1348 440.48h-38.29v-330.68h38.29z"/>
  <path d="m1624.6 323.43q0 57.87-29.588 89.633-29.152 31.763-79.19 31.763-30.893 0-55.259-13.924-23.931-14.359-37.855-41.335-13.924-27.412-13.924-66.137 0-57.87 29.152-89.198t79.19-31.328q31.763 0 55.694 14.359 24.366 13.924 37.855 40.9 13.924 26.542 13.924 65.266zm-176.22 0q0 41.335 16.099 65.702 16.534 23.931 52.213 23.931 35.244 0 51.778-23.931 16.534-24.366 16.534-65.702t-16.534-64.831-52.213-23.496-51.778 23.496-16.099 64.831z"/>
 </g>
</svg>
